<svg xmlns="http://www.w3.org/2000/svg" viewBox="0 0 512 512">
  <rect width="512" height="512" fill="#ffffff"/>
  <g fill="none" stroke="#b8b1ab" stroke-linecap="round" stroke-linejoin="round" stroke-width="7">
    <ellipse cx="146" cy="118" rx="40" ry="98" transform="rotate(-28 146 118)"/>
    <ellipse cx="358" cy="104" rx="34" ry="84" transform="rotate(23 358 104)"/>
    <ellipse cx="256" cy="174" rx="113" ry="108"/>
    <ellipse cx="258" cy="332" rx="80" ry="88"/>
    <path d="M216 243c-22 10-37 28-46 55"/>
    <path d="M296 241c19 12 30 28 39 50"/>
    <rect x="166" y="244" width="112" height="92" rx="12" transform="rotate(-13 222 290)"/>
    <path d="M193 279l22 20 19-17 17 16 13-12"/>
    <circle cx="229" cy="273" r="5"/>
    <ellipse cx="331" cy="366" rx="20" ry="17"/>
    <path d="M239 211c7 8 15 12 24 12s17-4 24-12"/>
    <path d="M246 226c5 7 10 10 16 10 7 0 12-3 17-10"/>
    <path d="M228 375c12 6 19 16 20 30"/>
    <path d="M289 375c-12 6-19 16-20 30"/>
    <path d="M249 405c7-13 13-20 19-20 7 0 13 7 20 20"/>
  </g>
  <g>
    <g transform="translate(196 150)">
      <circle cx="0" cy="0" r="28" fill="#ffffff" stroke="#b8b1ab" stroke-width="7"/>
      <circle cx="0" cy="0" r="15" fill="#8f8882"/>
      <circle cx="-8" cy="-8" r="4.5" fill="#ffffff"/>
      <circle cx="8" cy="-2" r="3.5" fill="#ffffff"/>
      <path d="M0 -20l3.8 7.6 8.4 1.2-6.1 5.8 1.4 8.2L0 0-7.5 2.8-6.1-5.4-12.2-11.2-3.8-12.4Z" fill="#ffffff" opacity="0.92"/>
    </g>
    <g transform="translate(314 150)">
      <circle cx="0" cy="0" r="28" fill="#ffffff" stroke="#b8b1ab" stroke-width="7"/>
      <circle cx="0" cy="0" r="15" fill="#8f8882"/>
      <circle cx="-8" cy="-8" r="4.5" fill="#ffffff"/>
      <circle cx="8" cy="-2" r="3.5" fill="#ffffff"/>
      <path d="M0 -20l3.8 7.6 8.4 1.2-6.1 5.8 1.4 8.2L0 0-7.5 2.8-6.1-5.4-12.2-11.2-3.8-12.4Z" fill="#ffffff" opacity="0.92"/>
    </g>
  </g>
  <path d="M247 398l-16 15 23 4-8 21 19-13 19 13-8-21 23-4-16-15" fill="#d7d0ca" opacity="0.9"/>
  <text x="256" y="470" text-anchor="middle" fill="#7e7670" font-family="'PingFang SC','Microsoft YaHei',sans-serif" font-size="42" font-weight="700">兔兔邮递员正在派件</text>
</svg>
